<svg width="21" height="21" viewBox="0 0 21 21" fill="none" xmlns="http://www.w3.org/2000/svg">
<path d="M7.18408 7.58781C7.71408 8.06281 8.41609 8.35181 9.18408 8.35181H11.1841C11.9222 8.35283 12.6346 8.08069 13.1841 7.58781H7.18408ZM7.18408 7.58781C6.63462 8.08069 5.92222 8.35283 5.18408 8.35181L7.18408 7.58781ZM6.23409 2.35181V2.30181H6.18408H3.18408C2.90561 2.30181 2.63854 2.41243 2.44162 2.60934C2.24471 2.80626 2.13408 3.07333 2.13408 3.35181V5.35181C2.13408 5.63028 2.24471 5.89736 2.44162 6.09427C2.63854 6.29118 2.90561 6.40181 3.18408 6.40181H5.18408C5.46256 6.40181 5.72963 6.29118 5.92655 6.09427C6.12346 5.89736 6.23409 5.63028 6.23409 5.35181V2.35181ZM3.19408 8.30181H3.14408V8.35181V18.3168V18.3668H3.19408H5.18408H5.23409V18.3168V13.3518C5.23409 12.8346 5.43953 12.3386 5.80523 11.9729C6.17092 11.6073 6.66691 11.4018 7.18408 11.4018H9.18408C9.70126 11.4018 10.1972 11.6073 10.5629 11.9729C10.9286 12.3386 11.1341 12.8346 11.1341 13.3518V18.3168V18.3668H11.1841H17.1971H17.2471V18.3168V8.35181V8.30181H17.1971H15.1841C14.4288 8.30181 13.7386 8.01765 13.2175 7.55057L13.1841 7.52065L13.1507 7.55059C12.6104 8.03522 11.9099 8.30281 11.1842 8.30181H11.1841H9.18408C8.42884 8.30181 7.73862 8.01765 7.21746 7.55057L7.18407 7.52065L7.1507 7.55059C6.61043 8.03522 5.90994 8.30281 5.18415 8.30181H5.18408H3.19408ZM1.19225 7.52893C0.895813 7.25816 0.657783 6.92947 0.492984 6.56299C0.321756 6.18222 0.233502 5.76938 0.234085 5.35188V5.35181V3.35181C0.234085 2.56942 0.544888 1.81907 1.09812 1.26584C1.65135 0.712609 2.4017 0.401807 3.18408 0.401807H17.1841C17.9665 0.401807 18.7168 0.712609 19.2701 1.26584C19.8233 1.81907 20.1341 2.56942 20.1341 3.35181V5.35181C20.1341 6.21914 19.7605 6.99984 19.1635 7.53972L19.1471 7.55461V7.57681V18.3168C19.1471 18.834 18.9416 19.33 18.5759 19.6957C18.2102 20.0614 17.7143 20.2668 17.1971 20.2668H9.55709V20.2659L9.54779 20.2677C9.42788 20.2904 9.30611 20.3018 9.18407 20.3018H7.18408C7.06206 20.3018 6.94029 20.2904 6.82038 20.2677L6.82054 20.2668H6.81108H3.19508C2.67791 20.2668 2.18192 20.0614 1.81623 19.6957C1.45053 19.33 1.24508 18.834 1.24508 18.3168V7.59681V7.47611L1.19225 7.52893ZM9.23409 13.3518V13.3018H9.18408H7.18408H7.13408V13.3518V18.3168V18.3668H7.18408H9.18408V18.3178H9.23409V18.3168V18.2668V13.3518ZM12.2341 2.35181V2.30181H12.1841H8.18408H8.13408V2.35181V5.35181C8.13408 5.63028 8.24471 5.89736 8.44162 6.09427C8.63854 6.29118 8.90561 6.40181 9.18408 6.40181H11.1841C11.4626 6.40181 11.7296 6.29118 11.9265 6.09427C12.1235 5.89736 12.2341 5.63028 12.2341 5.35181V2.35181ZM14.1841 2.30181H14.1341V2.35181V5.35181C14.1341 5.63028 14.2447 5.89736 14.4416 6.09427C14.6385 6.29118 14.9056 6.40181 15.1841 6.40181H17.1841C17.4626 6.40181 17.7296 6.29118 17.9265 6.09427C18.1235 5.89736 18.2341 5.63028 18.2341 5.35181V3.35181C18.2341 3.07333 18.1235 2.80626 17.9265 2.60934C17.7296 2.41243 17.4626 2.30181 17.1841 2.30181H14.1841ZM14.1841 11.4018H15.1841C15.436 11.4018 15.6777 11.5019 15.8558 11.6801C16.034 11.8582 16.1341 12.0999 16.1341 12.3518V15.3518C16.1341 15.6038 16.034 15.8454 15.8558 16.0236C15.6777 16.2017 15.436 16.3018 15.1841 16.3018H14.1841C13.9321 16.3018 13.6905 16.2017 13.5123 16.0236C13.3342 15.8454 13.2341 15.6038 13.2341 15.3518V12.3518C13.2341 12.0999 13.3342 11.8582 13.5123 11.6801C13.6905 11.5019 13.9321 11.4018 14.1841 11.4018Z" fill="#181725" stroke="white" stroke-width="0.1"/>
</svg>
