<svg width="19" height="19" viewBox="0 0 19 19" fill="none" xmlns="http://www.w3.org/2000/svg">
<path d="M8.51662 14.0713C9.30455 14.0713 10.0848 13.9161 10.8127 13.6146C11.5407 13.313 12.2021 12.8711 12.7593 12.3139C13.3164 11.7568 13.7584 11.0953 14.0599 10.3674C14.3614 9.63943 14.5166 8.85921 14.5166 8.07128C14.5166 7.28335 14.3614 6.50314 14.0599 5.77518C13.7584 5.04723 13.3164 4.38579 12.7593 3.82864C12.2021 3.27149 11.5407 2.82953 10.8127 2.52801C10.0848 2.22648 9.30455 2.07128 8.51662 2.07128C6.92532 2.07128 5.39919 2.70342 4.27398 3.82864C3.14876 4.95386 2.51662 6.47998 2.51662 8.07128C2.51662 9.66258 3.14876 11.1887 4.27398 12.3139C5.39919 13.4391 6.92532 14.0713 8.51662 14.0713ZM14.8366 12.9773L18.4166 16.5573C18.5121 16.6496 18.5882 16.76 18.6405 16.882C18.6928 17.0041 18.7203 17.1353 18.7214 17.2681C18.7224 17.4009 18.697 17.5325 18.6467 17.6554C18.5963 17.7783 18.5219 17.8899 18.428 17.9837C18.334 18.0775 18.2223 18.1517 18.0994 18.2019C17.9765 18.2521 17.8448 18.2773 17.712 18.276C17.5792 18.2748 17.448 18.2471 17.3261 18.1946C17.2041 18.1421 17.0938 18.0659 17.0016 17.9703L13.4216 14.3903C11.8141 15.6381 9.79141 16.2265 7.76537 16.0355C5.73933 15.8445 3.86222 14.8886 2.51617 13.3623C1.17011 11.8361 0.456301 9.85423 0.520042 7.82021C0.583783 5.78618 1.42029 3.85291 2.85926 2.41393C4.29824 0.974952 6.23152 0.13845 8.26554 0.0747088C10.2996 0.0109677 12.2814 0.72478 13.8077 2.07083C15.3339 3.41689 16.2898 5.294 16.4808 7.32004C16.6718 9.34608 16.0835 11.3687 14.8356 12.9763L14.8366 12.9773Z" fill="#53B175"/>
</svg>
