<svg width="24" height="20" viewBox="0 0 24 20" fill="none" xmlns="http://www.w3.org/2000/svg">
<path d="M4.16322 8.84344L11.9873 16.6675L19.8114 8.84344C20.5032 8.15169 20.8918 7.21348 20.8918 6.2352C20.8918 5.25693 20.5032 4.31871 19.8114 3.62697C19.4689 3.28445 19.0623 3.01275 18.6148 2.82738C18.1672 2.64201 17.6876 2.5466 17.2032 2.5466C16.2249 2.5466 15.2867 2.93522 14.5949 3.62697L11.9873 6.23459L9.3797 3.6282C8.68619 2.94573 7.7511 2.56495 6.77811 2.56879C5.80513 2.57264 4.87308 2.9608 4.18499 3.64873C3.49689 4.33666 3.10851 5.26862 3.10443 6.24161C3.10036 7.21459 3.48092 8.14977 4.16322 8.84344ZM11.1181 1.88732L11.9873 2.75653L12.8565 1.88732C13.4264 1.3124 14.1043 0.855711 14.8512 0.543466C15.598 0.23122 16.3992 0.0695713 17.2088 0.0677986C18.0183 0.066026 18.8202 0.224165 19.5684 0.533136C20.3167 0.842107 20.9965 1.29583 21.5689 1.86824C22.1413 2.44066 22.5951 3.12051 22.904 3.86874C23.213 4.61698 23.3711 5.41888 23.3694 6.2284C23.3676 7.03792 23.2059 7.83912 22.8937 8.58599C22.5814 9.33287 22.1248 10.0107 21.5498 10.5806L12.8578 19.2739C12.7436 19.3882 12.608 19.4789 12.4587 19.5408C12.3095 19.6027 12.1495 19.6345 11.9879 19.6345C11.8264 19.6345 11.6664 19.6027 11.5171 19.5408C11.3679 19.4789 11.2323 19.3882 11.1181 19.2739L2.42481 10.5819C1.84207 10.0138 1.37793 9.33566 1.05931 8.58681C0.740696 7.83796 0.573944 7.0333 0.56873 6.21951C0.563516 5.40572 0.719943 4.59899 1.02894 3.84612C1.33793 3.09325 1.79335 2.40923 2.36876 1.83374C2.94417 1.25825 3.62812 0.802737 4.38095 0.493635C5.13377 0.184534 5.94048 0.0279921 6.75428 0.0330911C7.56807 0.0381901 8.37275 0.204828 9.12165 0.523339C9.87054 0.84185 10.5487 1.30589 11.1169 1.88855L11.1181 1.88732Z" fill="#53B175"/>
</svg>
